<svg xmlns="http://www.w3.org/2000/svg" width="192" height="144" viewBox="0 0 50.8 38.1">
  <path style="fill:#9c7c38" d="M14.672 3.69q0 .396-.253.7-.243.291-.57.291-.264-.013-.687-.516-.591-.713-.918-.965-.666-.515-1.542-.515-1.31 0-2.239 1.163-.93 1.163-.93 2.803h3.96q.793 0 .793.99 0 .992-.792.992h-3.96V19.54q0 .991-.792.991t-.792-.991V8.633H4.366q-.792 0-.792-.991t.792-.991H5.95q0-2.46 1.394-4.204Q8.738.702 10.702.702q1.077 0 2.133.635 1.109.66 1.668 1.745.17.33.17.608zM27.345 7.615q0 .238-.095.476L22.57 19.816q-.295.727-.781.727-.486 0-.781-.727L16.33 8.091q-.095-.238-.095-.476 0-.396.254-.687.253-.29.57-.29.475 0 .686.554l4.045 10.126 4.045-10.126q.221-.555.686-.555.317 0 .57.291.254.29.254.687zM40.006 13.59q0 2.816-1.51 4.852-1.542 2.088-3.77 2.088-2.228 0-3.77-2.088-1.51-2.036-1.51-4.852V1.694q0-.992.792-.992t.792.992v6.94q1.531-1.983 3.696-1.983 2.228 0 3.77 2.088 1.51 2.036 1.51 4.851zm-1.584 0q0-1.996-1.035-3.45-1.077-1.507-2.66-1.507-1.574 0-2.651 1.507-1.035 1.454-1.046 3.45 0 1.996 1.046 3.45 1.077 1.507 2.65 1.507 1.574 0 2.661-1.507 1.035-1.454 1.035-3.45z"/>
  <path style="fill:#9c7c38;fill-opacity:.1" d="M27.086 35.193q-.29-.304-.765-.536-.455-.222-.782-.222-.255.01-.31.394-.071.546-.215.738-.29.394-1.166.394-1.31 0-3.088-.89-1.777-.89-2.973-2.143h3.96q.792 0 .069-.758-.723-.758-1.515-.758h-3.96l-7.955-8.339q-.723-.758-1.516-.758-.792 0-.068.758l7.955 8.34h-1.584q-.792 0-.07.757.724.758 1.516.758h1.584q1.793 1.88 4.46 3.215 2.667 1.334 4.631 1.334 1.077 0 1.67-.485.627-.506.396-1.334-.072-.253-.274-.465zM36.894 32.19q-.173-.181-.442-.363L23.221 22.86q-.826-.556-1.312-.556-.486 0-.25.556l3.874 8.966q.078.182.252.364.289.303.755.525.465.223.782.223.475 0 .281-.425l-3.341-7.743 11.43 7.743q.627.425 1.092.425.317 0 .358-.223.041-.222-.248-.525zM45.197 27.622q-2.053-2.153-5.048-3.71-3.066-1.597-5.294-1.597-2.228 0-2.246 1.597-.026 1.557 2.028 3.71l8.678 9.097q.724.758 1.516.758t.068-.758l-5.062-5.307q2.978 1.516 5.143 1.516 2.228 0 2.246-1.597.025-1.556-2.029-3.71zm-1.584 0q1.456 1.526 1.482 2.638.022 1.152-1.562 1.152-1.573 0-3.75-1.152-2.095-1.112-3.562-2.638-1.456-1.526-1.47-2.638-.023-1.153 1.55-1.153 1.574 0 3.76 1.153 2.096 1.112 3.552 2.638z"/>
  <path style="stroke:#9c7c38;stroke-width:1.52911" d="M0 20.897h50.8"/>
  <path style="stroke:#9c7c38;stroke-width:.264583" d="M0 22.308h50.8"/>
</svg>